<svg height="1260" viewBox="0 0 785 1260" width="785" xmlns="http://www.w3.org/2000/svg" xmlns:xlink="http://www.w3.org/1999/xlink"><linearGradient id="a" gradientTransform="rotate(90)" x1="0%" x2="100%" y1="0%" y2="0%"><stop offset=".5"/><stop offset=".5" stop-color="#00f"/></linearGradient><path d="m1041.51 120h2.66v457.333l-369.17 161.334v-4c11.786-10 24.23-41.372 33.319-56 28.77-46.305 55.12-94.287 83.964-141.334 56.573-92.273 109.669-187.1 166.6-280 27.48-44.86 58.557-90.051 82.627-137.333zm25.32 0c10.62 5.592 23.5 37.825 30.65 49.333 24.44 39.351 47.2 80.118 71.97 120 92.29 148.593 182.71 299.8 271.89 450.667h-4l-370.51-162.667zm-22.66 482.667v390.666h-2.66c-6.99-6.727-16.79-9.359-25.33-14.666-22.9-14.236-47.091-26.884-70.633-41.334-58.687-36.02-119.941-70.606-178.591-106.666-25.745-15.829-52.163-29.887-77.3-45.334-8.217-5.048-23.124-7.923-26.656-17.333 9.258-1.833 16.514-7.349 23.99-10.667 24.87-11.035 49.353-21.445 73.3-32 66.536-29.322 131.937-56.115 198.584-85.333q31.23-13.69 63.976-28c6.73-2.942 12.61-7.94 21.32-9.333zm22.66 0c13 2.875 24.72 11.025 35.98 16 29.74 13.136 59.22 25.962 87.97 38.666 86.07 38.048 172.85 71.885 257.22 112a3.826 3.826 0 0 1 -1.33 1.334c-11.1 10.65-27.94 15.708-41.32 24-31.26 19.367-64.07 36.424-95.96 56-53.65 32.931-109.66 62.723-163.93 96-25.47 15.622-51.28 33.365-78.63 46.666zm-22.66 777.333h-5.33q-187.234-265.3-374.507-530.667h4c7.065 6.793 16.627 9.327 25.323 14.667 22.97 14.105 47.079 26.872 70.636 41.333 58.669 36.017 119.972 70.605 178.589 106.667 23.544 14.48 47.694 27.23 70.639 41.33 4.61 2.84 28.9 13.49 30.65 16zm22.66 0v-310.67c12.05-5.29 22.65-13.41 33.32-20 25.68-15.85 52.2-29.86 77.3-45.33 56.64-34.91 115.21-63.878 171.93-98.667 22.95-14.082 47.06-26.884 70.63-41.333 8.03-4.918 15.05-11.874 25.32-14.667v1.334c-10.78 10.922-17.71 25.935-26.65 38.666-21.13 30.084-42.59 60.161-63.97 90.667-62.5 89.17-127.91 177.62-190.59 266.67-23.63 33.57-47.29 66.82-70.64 100-6.62 9.41-14.08 30.73-26.65 33.33z" fill="url(#a)" transform="translate(-663 -120)"/></svg>