<svg clip-rule="evenodd" fill-rule="evenodd" height="256" image-rendering="optimizeQuality" shape-rendering="geometricPrecision" text-rendering="geometricPrecision" viewBox="0 0 256001 256002" width="256" xmlns="http://www.w3.org/2000/svg"><path d="m166015 15764c-3890-11979-16756-18534-28733-14641-11978 3892-18534 16757-14641 28734l58966 181423c4049 11190 16137 17478 27740 14139 12103-3484 19482-16338 15619-28225-146-454-58951-181430-58951-181430z" fill="#dfa22f"/><path d="m74649 45451c-3892-11977-16758-18532-28735-14641-11980 3892-18535 16757-14641 28735l58966 181423c4049 11190 16137 17479 27740 14138 12103-3483 19482-16337 15619-28226-146-451-58949-181429-58949-181429z" fill="#3cb187"/><path d="m240237 166019c11980-3892 18533-16757 14641-28736-3892-11977-16756-18532-28734-14640l-181423 58967c-11189 4047-17478 16135-14139 27739 3485 12102 16340 19481 28226 15619 454-147 181429-58949 181429-58949z" fill="#ce1e5b"/><path d="m82533 217260c11810-3837 27030-8782 43362-14089-3837-11808-8782-27030-14090-43365l-43365 14094z" fill="#392538"/><path d="m173901 187571c16394-5325 31632-10276 43362-14088-3837-11810-8785-27035-14093-43375l-43363 14096z" fill="#bb242a"/><path d="m210551 74651c11976-3892 18532-16757 14640-28737-3892-11976-16757-18531-28735-14641l-181423 58968c-11190 4048-17478 16136-14137 27740 3482 12102 16338 19481 28227 15619 450-148 181428-58949 181428-58949z" fill="#72c5cd"/><path d="m52839 125894c11809-3837 27033-8785 43368-14092-5326-16395-10277-31631-14089-43365l-43374 14098z" fill="#248c73"/><path d="m144205 96207c16397-5327 31637-10279 43370-14093-5328-16397-10279-31638-14093-43374l-43373 14097z" fill="#62803a"/><path d="m0 1h256000v256000h-256000z" fill="none"/></svg>